<svg xmlns="http://www.w3.org/2000/svg" viewBox="0 0 128 128">
  <defs>
<radialGradient id="sunGrad" cx="0.4" cy="0.4" r="0.6">
  <stop offset="0%" stop-color="#FFE87D"/>
  <stop offset="100%" stop-color="#FFA800"/>
</radialGradient>

<linearGradient id="cloudGrad" x1="0" y1="0" x2="0" y2="1">
  <stop offset="0%" stop-color="#F0Faff"/>
  <stop offset="100%" stop-color="#9ec7f3"/>
</linearGradient>

<filter id="shadow" x="-20%" y="-20%" width="140%" height="140%">
  <feDropShadow dx="0" dy="4" stdDeviation="4" flood-color="#00000055"/>
</filter>
</defs>
  <!-- Sun -->
  <g filter="url(#shadow)">
    <circle cx="46" cy="46" r="26" fill="url(#sunGrad)"/>
    <g stroke="#FFC446" stroke-width="6" stroke-linecap="round">
      <line x1="46" y1="10" x2="46" y2="26"/>
      <line x1="46" y1="66" x2="46" y2="82"/>
      <line x1="10" y1="46" x2="26" y2="46"/>
      <line x1="66" y1="46" x2="82" y2="46"/>
      <line x1="23" y1="23" x2="34" y2="34"/>
      <line x1="69" y1="69" x2="80" y2="80"/>
      <line x1="23" y1="69" x2="34" y2="58"/>
      <line x1="69" y1="23" x2="80" y2="34"/>
    </g>
  </g>
  <path d="M30 88h68a28 28 0 0 0 0-56 38 38 0 0 0-70 12 22 22 0 0 0 2 44z" fill="url(#cloudGrad)" filter="url(#shadow)"/>
</svg>