<svg width="64" height="64" viewBox="0 0 64 64" fill="none" xmlns="http://www.w3.org/2000/svg">
  <path d="M48 40C50.21 40 52 38.21 52 36C52 33.79 50.21 32 48 32C47.74 32 47.48 32.02 47.23 32.05C46.5 28.44 43.31 25.5 39.5 25.5C36.42 25.5 33.8 27.28 32.5 29.9C31.2 27.28 28.58 25.5 25.5 25.5C21.69 25.5 18.5 28.44 17.77 32.05C17.52 32.02 17.26 32 17 32C14.79 32 13 33.79 13 36C13 38.21 14.79 40 17 40H48Z" stroke="currentColor" stroke-width="1.5" fill="none"/>
  <path d="M20 24C22.21 24 24 22.21 24 20C24 17.79 22.21 16 20 16C19.74 16 19.48 16.02 19.23 16.05C18.5 12.44 15.31 9.5 11.5 9.5C8.42 9.5 5.8 11.28 4.5 13.9C3.2 11.28 0.58 9.5 -2.5 9.5C-6.31 9.5 -9.5 12.44 -10.23 16.05C-10.48 16.02 -10.74 16 -11 16C-13.21 16 -15 17.79 -15 20C-15 22.21 -13.21 24 -11 24H20Z" stroke="currentColor" stroke-width="1.5" fill="none"/>
</svg>
