<svg width="64" height="64" viewBox="0 0 64 64" fill="none" xmlns="http://www.w3.org/2000/svg">
  <path d="M48 40C50.21 40 52 38.21 52 36C52 33.79 50.21 32 48 32C47.74 32 47.48 32.02 47.23 32.05C46.5 28.44 43.31 25.5 39.5 25.5C36.42 25.5 33.8 27.28 32.5 29.9C31.2 27.28 28.58 25.5 25.5 25.5C21.69 25.5 18.5 28.44 17.77 32.05C17.52 32.02 17.26 32 17 32C14.79 32 13 33.79 13 36C13 38.21 14.79 40 17 40H48Z" stroke="currentColor" stroke-width="1.5" fill="none"/>
  <path d="M24 48C24 48 26 50 28 48C30 46 32 48 32 48C32 48 34 46 36 48C38 50 40 48 40 48M20 56C20 56 22 58 24 56C26 54 28 56 28 56C28 56 30 54 32 56C34 58 36 56 36 56M44 56C44 56 46 58 48 56C50 54 52 56 52 56C52 56 54 54 56 56C58 58 60 56 60 56" stroke="currentColor" stroke-width="1.5" stroke-linecap="round"/>
</svg>
