<svg width="64" height="64" viewBox="0 0 64 64" fill="none" xmlns="http://www.w3.org/2000/svg">
  <path d="M48 40C50.21 40 52 38.21 52 36C52 33.79 50.21 32 48 32C47.74 32 47.48 32.02 47.23 32.05C46.5 28.44 43.31 25.5 39.5 25.5C36.42 25.5 33.8 27.28 32.5 29.9C31.2 27.28 28.58 25.5 25.5 25.5C21.69 25.5 18.5 28.44 17.77 32.05C17.52 32.02 17.26 32 17 32C14.79 32 13 33.79 13 36C13 38.21 14.79 40 17 40H48Z" stroke="currentColor" stroke-width="1.5" fill="none"/>
  <path d="M28 20L36 28L32 32L40 40" stroke="currentColor" stroke-width="2" stroke-linecap="round" stroke-linejoin="round"/>
</svg>
